<svg id="Layer_1" data-name="Layer 1" xmlns="http://www.w3.org/2000/svg" viewBox="0 0 321.81 286.26"><defs><style>.cls-1{fill:#ea580c;}.cls-2{fill:#333;}</style></defs><path class="cls-1" d="M206.24,265.1H178.11V308q0,9.21-4.35,14a15.31,15.31,0,0,1-22.14.05q-4.23-4.71-4.24-13.81V191.34q0-10.14,4.66-14.48t14.79-4.35h39.41q17.49,0,26.9,2.69a40.1,40.1,0,0,1,16.08,8.59,38.78,38.78,0,0,1,10.3,14.69A51.79,51.79,0,0,1,263,218q0,23.17-14.27,35.12T206.24,265.1Zm-7.45-69.52H178.11v46.34h20.68A61.71,61.71,0,0,0,217,239.65a21.17,21.17,0,0,0,11.12-7.45q3.83-5.17,3.83-13.55,0-10-5.9-16.34Q219.39,195.58,198.79,195.58Z" transform="translate(-147.38 -172.51)"/><path class="cls-1" d="M357.47,276.27H302.24a37.32,37.32,0,0,0,3.88,17A25.93,25.93,0,0,0,330,308a33.61,33.61,0,0,0,9.26-1.19,30.07,30.07,0,0,0,8.12-3.72,62.4,62.4,0,0,0,7.24-5.43q3.32-2.9,8.58-7.86a9.29,9.29,0,0,1,6.21-1.86,10.23,10.23,0,0,1,7,2.37,8.5,8.5,0,0,1,2.69,6.73q0,3.82-3,8.95a35.34,35.34,0,0,1-9,9.82,51.47,51.47,0,0,1-15.2,7.81,65.48,65.48,0,0,1-21,3.11q-27.21,0-42.31-15.52t-15.1-42.1a70.27,70.27,0,0,1,3.72-23.22A51.08,51.08,0,0,1,288,227.55a47.1,47.1,0,0,1,17.59-11.75,63.19,63.19,0,0,1,23.17-4.08q16.54,0,28.39,7a45.92,45.92,0,0,1,17.74,18.05,47.49,47.49,0,0,1,5.9,22.55q0,10.67-6.1,13.81T357.47,276.27Zm-55.23-16h51.2q-1-14.48-7.81-21.67t-17.84-7.19a22.58,22.58,0,0,0-17.33,7.3Q303.68,246,302.24,260.23Z" transform="translate(-147.38 -172.51)"/><path class="cls-1" d="M406.09,214.41h3.11v-17q0-6.83.36-10.7a15.66,15.66,0,0,1,2-6.67,12.78,12.78,0,0,1,4.75-4.71,13.48,13.48,0,0,1,6.94-1.81,14,14,0,0,1,9.72,4,12,12,0,0,1,3.67,6.57,59.42,59.42,0,0,1,.78,11v19.24h10.34q6,0,9.16,2.84a9.4,9.4,0,0,1,3.15,7.3q0,5.69-4.5,8t-12.88,2.28h-5.27v51.92a84.51,84.51,0,0,0,.46,10.19,10.45,10.45,0,0,0,2.48,5.8q2,2.22,6.57,2.22a34.86,34.86,0,0,0,6.73-.88,35.33,35.33,0,0,1,6.62-.88,8.54,8.54,0,0,1,6.15,2.74,9.21,9.21,0,0,1,2.74,6.78q0,6.82-7.44,10.45t-21.42,3.62q-13.24,0-20.06-4.45A20.61,20.61,0,0,1,411.32,310q-2.13-7.86-2.12-21v-54.2h-3.73q-6.11,0-9.31-2.9a9.48,9.48,0,0,1-3.2-7.34,9.14,9.14,0,0,1,3.36-7.3Q399.68,214.42,406.09,214.41Z" transform="translate(-147.38 -172.51)"/><path class="cls-2" d="M249.42,415.45a21.42,21.42,0,0,1-3.42,11.9,22.63,22.63,0,0,1-10,8.27,37.45,37.45,0,0,1-15.59,3q-10.81,0-17.83-4.09a23.7,23.7,0,0,1-8.09-7.84,17.78,17.78,0,0,1-3.12-9.54,6.46,6.46,0,0,1,6.63-6.52,5.61,5.61,0,0,1,4,1.49,11.7,11.7,0,0,1,2.76,4.43,30,30,0,0,0,3,5.83,12.2,12.2,0,0,0,4.56,3.86,16.88,16.88,0,0,0,7.72,1.52c4.38,0,7.95-1,10.68-3.06a9.23,9.23,0,0,0,4.11-7.65,8.11,8.11,0,0,0-2.21-5.9,14.25,14.25,0,0,0-5.73-3.46,95.53,95.53,0,0,0-9.39-2.54,69.18,69.18,0,0,1-13.17-4.31,21.26,21.26,0,0,1-8.42-6.72,17.5,17.5,0,0,1-3.11-10.59,18.16,18.16,0,0,1,3.29-10.71,20.66,20.66,0,0,1,9.51-7.19,38.88,38.88,0,0,1,14.64-2.52,36.29,36.29,0,0,1,11.63,1.67A24.59,24.59,0,0,1,240,369.2a18.45,18.45,0,0,1,4.73,5.81,13.31,13.31,0,0,1,1.5,5.92,7,7,0,0,1-1.87,4.76,6,6,0,0,1-4.66,2.12,5.39,5.39,0,0,1-3.86-1.27,17.33,17.33,0,0,1-2.86-4.16,18.79,18.79,0,0,0-4.78-6.45q-2.79-2.32-9-2.32a15.49,15.49,0,0,0-9.23,2.52c-2.34,1.67-3.52,3.69-3.52,6.05a6.1,6.1,0,0,0,1.2,3.78A9.92,9.92,0,0,0,211,388.7a22.12,22.12,0,0,0,4.23,1.8q2.15.64,7.07,1.89a107.47,107.47,0,0,1,11.18,3.19,33.87,33.87,0,0,1,8.52,4.23,17.41,17.41,0,0,1,5.48,6.3A20.19,20.19,0,0,1,249.42,415.45Z" transform="translate(-147.38 -172.51)"/><path class="cls-2" d="M274.32,371.37v20.17a28.93,28.93,0,0,1,5.05-4.73,18.35,18.35,0,0,1,5.46-2.61,22.49,22.49,0,0,1,6.42-.88,18.83,18.83,0,0,1,9.19,2.19,17,17,0,0,1,8.24,11.83,42.17,42.17,0,0,1,.5,7v26q0,4.08-1.87,6.17a6.29,6.29,0,0,1-4.95,2.1q-6.72,0-6.72-8.27v-23q0-6.53-1.95-10t-7.37-3.51a11,11,0,0,0-6.55,2.07,12.51,12.51,0,0,0-4.36,5.65q-1.1,3-1.09,10.81v18a9.2,9.2,0,0,1-1.82,6.15,6.31,6.31,0,0,1-5.05,2.12q-6.74,0-6.73-8.27v-59q0-4.12,1.77-6.2a6.17,6.17,0,0,1,5-2.07,6.35,6.35,0,0,1,5.05,2.09Q274.31,367.29,274.32,371.37Z" transform="translate(-147.38 -172.51)"/><path class="cls-2" d="M373.53,411a32.17,32.17,0,0,1-1.89,11.21,24.78,24.78,0,0,1-5.48,8.82,24.27,24.27,0,0,1-8.57,5.65,30.29,30.29,0,0,1-11.2,2,29.4,29.4,0,0,1-11.11-2,24.52,24.52,0,0,1-14-14.46A32,32,0,0,1,319.39,411a32.48,32.48,0,0,1,1.89-11.3,24.9,24.9,0,0,1,5.43-8.77,24,24,0,0,1,8.57-5.6,32.34,32.34,0,0,1,22.31,0,24,24,0,0,1,14.07,14.44A32.14,32.14,0,0,1,373.53,411Zm-13.65,0q0-8.31-3.66-12.94a11.89,11.89,0,0,0-9.83-4.64,12.2,12.2,0,0,0-7,2.07,13.16,13.16,0,0,0-4.68,6.1A25,25,0,0,0,333,411a24.64,24.64,0,0,0,1.62,9.32,13.32,13.32,0,0,0,4.63,6.1,12,12,0,0,0,7.1,2.12,11.88,11.88,0,0,0,9.83-4.66Q359.88,419.19,359.88,411Z" transform="translate(-147.38 -172.51)"/><path class="cls-2" d="M396.79,390.94v1.65a26.69,26.69,0,0,1,8-6.95,19.44,19.44,0,0,1,9.36-2.22,21.64,21.64,0,0,1,11.55,3.24,22.37,22.37,0,0,1,8.35,9.46,33.11,33.11,0,0,1,3.06,14.75,35.87,35.87,0,0,1-1.77,11.52,26,26,0,0,1-4.85,8.82,21.3,21.3,0,0,1-16.34,7.4,19,19,0,0,1-9.79-2.34,28,28,0,0,1-7.54-6.88v20.42q0,9-6.53,9c-2.55,0-4.25-.77-5.08-2.32a14.57,14.57,0,0,1-1.24-6.75V391q0-3.89,1.69-5.8a5.85,5.85,0,0,1,4.63-1.92,6.12,6.12,0,0,1,4.71,2A8,8,0,0,1,396.79,390.94Zm26.64,19.78a23.41,23.41,0,0,0-1.64-9.24,13.51,13.51,0,0,0-4.56-5.93,10.88,10.88,0,0,0-6.45-2.07,12.11,12.11,0,0,0-9.49,4.44q-3.85,4.43-3.85,13,0,8.13,3.83,12.63a12,12,0,0,0,9.51,4.51,11,11,0,0,0,6.28-2,13.55,13.55,0,0,0,4.63-5.9A23.45,23.45,0,0,0,423.43,410.72Z" transform="translate(-147.38 -172.51)"/></svg>